<svg width="20" height="20" viewBox="0 0 20 20" fill="white" xmlns="http://www.w3.org/2000/svg">
<path d="M13.1001 19.8C12.5001 19.8 11.9001 19.5 11.6001 19L11.5001 18.9L7.60014 12.4L1.10014 8.40005C0.200144 7.80005 -0.0998562 6.60005 0.500144 5.70005C0.700144 5.50005 1.00014 5.20005 1.40014 5.00005H1.60014L17.3001 0.400049C17.5001 0.300049 17.7001 0.300049 17.8001 0.300049C18.9001 0.300049 19.7001 1.20005 19.7001 2.20005C19.7001 2.30005 19.7001 2.50005 19.7001 2.60005V2.70005L15.1001 18.3C14.7001 19.3 14.0001 19.9 13.1001 19.8ZM13.8001 5.50005C14.0001 5.50005 14.1001 5.60005 14.2001 5.60005L14.3001 5.70005C14.6001 6.00005 14.6001 6.40005 14.4001 6.70005L14.3001 6.80005L9.00014 12.1L12.7001 18.2C12.8001 18.3 12.9001 18.4 13.1001 18.4C13.3001 18.4 13.4001 18.3 13.5001 18.2V18.1L18.1001 2.50005C18.1001 2.40005 18.1001 2.20005 18.0001 2.10005C17.9001 2.00005 17.8001 1.90005 17.7001 1.90005H17.6001L2.00014 6.40005C1.90014 6.50005 1.70014 6.60005 1.70014 6.70005C1.70014 6.90005 1.70014 7.00005 1.80014 7.10005H1.90014L8.00014 10.9L13.2001 5.60005C13.4001 5.60005 13.6001 5.50005 13.8001 5.50005Z" />
</svg>
